<svg width="18" height="18" fill="none" xmlns="http://www.w3.org/2000/svg">
    <g clip-path="url(#clip0)">
        <path d="M17.596 14.225l-2.78-2.78c-.553-.551-1.47-.535-2.043.039l-1.4 1.4-.277-.154c-.884-.49-2.095-1.162-3.368-2.436-1.278-1.278-1.95-2.49-2.442-3.375-.052-.094-.101-.184-.15-.27l.94-.938.462-.463c.574-.574.59-1.49.037-2.044L3.795.424c-.552-.553-1.47-.536-2.043.038l-.784.788.022.021a4.53 4.53 0 00-.646 1.14c-.15.396-.244.775-.287 1.154C-.31 6.608 1.08 9.39 4.854 13.163c5.217 5.216 9.42 4.822 9.602 4.803a4.696 4.696 0 001.158-.291c.413-.162.8-.38 1.135-.643l.017.015.793-.777c.573-.574.59-1.49.037-2.045z" fill="#fff"/>
    </g>
    <defs>
        <clipPath id="clip0">
            <path fill="#fff" d="M0 0h18v18H0z"/>
        </clipPath>
    </defs>
</svg>
