<svg version="1.1" id="img_but" xmlns="http://www.w3.org/2000/svg" x="0" y="0" viewBox="0 0 100 90.8" xml:space="preserve">
    <style>
        .st0{fill:#fff}
    </style>
    <path class="st0" d="M38.6 20.8c-3 2-3.9 5.9-2.1 9L48.8 51c.5.9 1.6 1.3 2.6 1 1-.3 1.7-1.2 1.7-2.3l-.8-24.6c-.1-3.7-3.1-6.6-6.8-6.5.5-1.3.6-2.7.6-4.1-.4-4.5-4.2-7.8-4.3-7.9-.4-.4-1.1-.3-1.4.1-.3.3-.4.6-.4.8 0 0 .5 3.4.8 7.5 0 .3.1.7.1 1l-.5-.9c-1.8-3.7-3.2-6.8-3.2-6.8-.2-.4-.6-.6-1-.6s-.8.3-.9.7c-.1.2-1.5 5 .5 9 .8 1.3 1.7 2.4 2.8 3.4zm9.7.8c1.2.8 1.9 2.2 2 3.7l.1 2.2-3.6 1c-.5.1-.9.7-.8 1.2s.7.9 1.2.8h.1l3.1-.9.7 20.4c0 .2-.1.3-.3.3-.1 0-.2 0-.2-.1l-5-8.7 2.6-.8c.5-.1.9-.7.8-1.2-.1-.5-.7-.9-1.2-.8h-.1l-2.9.8c-.1 0-.1.1-.2.1L42.4 36l2.1-.6c.5-.2.9-.7.7-1.3s-.7-.9-1.3-.7l-2.6.8-2.6-4.5 1.9-.5c.5-.1.9-.7.8-1.2s-.7-.9-1.2-.8h-.1l-2.3.6c-.9-2.5.5-5.2 2.9-6 .1 0 .2-.1.3-.1l3.1-.9c.4-.1.9-.2 1.3-.2 1.1.1 2.1.4 2.9 1zM44 14.8c.1 1.5-.2 3-.8 4.3-.1-1.5-.2-2.9-.3-4.3-.1-1.6-.3-3-.4-4.3.8 1.3 1.3 2.8 1.5 4.3zM38.7 16c.6 1.2 1.3 2.5 2 3.8-1.3-.8-2.3-1.9-3-3.3-.6-1.4-.9-2.8-.9-4.3.5 1.1 1.2 2.4 1.9 3.8zM27.3 27.1c1.2 2.5 2.6 4.8 4.2 7.1l.7 1c.3.4 1 .5 1.4.2s.5-.9.2-1.3l-.7-1c-1.4-2-2.6-4.1-3.8-6.2.8-1.3 4.2-6.8 2.8-12.1-1.6-5.9-8.6-9-8.9-9.1-.4-.2-1 0-1.2.4-.2.3-4.6 6.5-2.9 12.4 1.4 4.7 6.4 7.7 8.2 8.6zm-4-19.3c1.7.9 5.9 3.5 7 7.4 1 3.6-.8 7.5-1.9 9.4-1.4-3-2.4-6-3.2-9.2l-.3-1.1c-.1-.5-.7-.9-1.2-.7-.5.1-.9.7-.7 1.2l.3 1.1c.7 2.7 1.6 5.3 2.6 7.8-1.9-1.3-4-3.4-4.8-6.1-1.1-3.7 1.2-8.1 2.2-9.8z"/>
    <path class="st0" d="M92.8 19.3c-.2-.4-.6-.7-1-.6-.6 0-15.7 1.1-21.8 10.7-3.6 5.5-3.8 13.4-3.4 19.3L59.4 53c-.5.3-.6.9-.3 1.4.2.3.4.4.7.5l8.9 1.2.7 1.1H34.7c3.5-3.8 4.1-9.4 1.5-13.9-1.3-2.2-3.3-3.9-5.6-4.9-3.7-1.5-7.1-3.8-10-6.6l-1.1-1.1c-1-1-2.4-1.3-3.7-.9l-3-3.9c1-1.7.4-3.8-1.3-4.7-1.7-1-3.8-.4-4.7 1.3-.2.3-.3.6-.4.9-1.9 0-3.5 1.5-3.5 3.4 0 .8.3 1.5.7 2.1.7.8 1.8 1.3 2.9 1.3.4 0 .8 0 1.1-.1l2.9 3.8c-.5 1-.5 2.2 0 3.2l.7 1.4C13 42.1 14 46 14.3 50c.2 2.5 1.2 5 2.9 6.9l.2.2H17c-.6 0-1 .4-1 1 0 18.3 14.4 31 35 31s35-12.7 35-31c0-.6-.4-1-1-1h-9.2l.2-2.3c5.5-2 12.6-5.5 16.1-11 6.2-9.8 1-23.9.7-24.5zm.2 15.6l-1.8-.7c-4.5-1.8-8.7-4.5-12.2-7.8L77.6 25c4.2-2.3 8.9-3.8 13.6-4.3 1.5 4.6 2.1 9.4 1.8 14.2zM5.2 27.6c-.5-.6-.4-1.6.3-2.1.4-.3.9-.4 1.4-.2.3.1.6 0 .8-.1.4-.2.6-.6.6-1 0-.8.6-1.5 1.4-1.5.8 0 1.5.6 1.5 1.4 0 .4-.1.8-.4 1.1-.4.4-.4 1 0 1.4l3.3 4.2-2 1.5-3.2-4.1-.1-.1-.1-.1-.2-.1-.2-.1h-.5l-.2.1h-.1c-.8.3-1.7.2-2.3-.3zM19 55.7l-.2-.3c-1.4-1.6-2.2-3.6-2.4-5.7-.3-4.3-1.4-8.4-3.3-12.3l-.7-1.4c-.3-.7-.1-1.6.5-2.1l2.9-2.1c.7-.5 1.6-.5 2.2.1l1.1 1.1c3.1 3 6.7 5.4 10.6 7 2 .8 3.6 2.2 4.7 4 2.4 4.1 1.5 9.3-2.1 12.4-.2.1-.4.3-.6.4 0 0 0 .1-.1.1H20.2c-.4-.3-.9-.9-1.2-1.2zM51 87c-17 0-29.1-8.6-32.2-22h64.4C80.1 78.4 67.9 87 51 87zm32.6-24H18.4c-.2-1.3-.4-2.7-.4-4h66c0 1.3-.2 2.7-.4 4zm6.9-20.5c-3.4 5.2-10.4 8.6-15.7 10.5 0 0-.1 0-.1.1-.1 0-.1.1-.2.1-.1.1-.2.2-.2.3s0 .1-.1.2v.2l-.4 3.1h-2.2L70 54.5c-.2-.3-.4-.4-.7-.5l-6.4-.9 5.3-3.1c.3-.2.5-.6.5-1-.5-5.6-.4-13.4 3-18.7 1.1-1.7 2.5-3.1 4.2-4.3l1.8 1.7c3.7 3.5 8 6.3 12.8 8.2l2.2.9c-.4 2.1-1.2 4-2.2 5.7z"/>
    <path class="st0" d="M76.1 30.9c-.5-.3-1.1-.2-1.4.3-2 3.1-3.1 7.2-3.4 12.2 0 .6.4 1 .9 1.1h.1c.5 0 1-.4 1-.9.3-4.7 1.3-8.5 3.1-11.3.3-.5.2-1.1-.3-1.4z"/>
    <circle class="st0" cx="84.2" cy="26.1" r="1.5"/>
    <path class="st0" d="M56.4 29c-.7 2 .4 4.2 2.4 4.9s4.2-.4 4.9-2.4c0-.1.1-.3.1-.4 0-.2.1-.4.1-.5 4-.9 7.4-4.7 8.8-9.5 1.2-3.9.6-8.2-1.6-11.6l.3-.6c.7-2.7-.8-5.4-3.5-6.2-1.3-.3-2.6-.2-3.7.5-1.2.6-2 1.7-2.4 3 0 .1 0 .2-.1.3-3.5 1.3-6.6 4.9-7.8 9.4-1.4 5-.3 10.1 2.7 13-.1-.1-.1 0-.2.1zm-.6-12.9c1.1-4 3.9-7.2 7-8.2.5-.1.8-.5.8-1 0-.2.1-.3.1-.5.2-.7.7-1.4 1.4-1.7.7-.4 1.5-.5 2.3-.2 1.6.5 2.5 2.1 2.1 3.7 0 .1-.1.2-.1.3-.3.3-.4.6-.4 1 0 .2.1.4.2.6 2.1 3 2.6 6.8 1.6 10.3-1.2 4.4-4.5 7.8-8 8.3-.5.1-.9.5-.8 1v.2c.1 1-.7 1.9-1.7 2-1 .1-1.9-.7-2-1.7 0-.4.1-.9.4-1.2v-.1c.1-.1.1-.2.1-.3v-.1c.1-.1.1-.3 0-.4 0-.1 0-.1-.1-.2 0-.1-.1-.1-.1-.1 0-.1-.1-.1-.1-.1-2.8-2.3-3.9-7-2.7-11.6z"/>
    <path class="st0" d="M58.6 24.7c.5-.1.9-.6.8-1.2-.7-4.1.4-8.3 3.2-11.5.4-.4.3-1-.1-1.4s-1-.3-1.4.1c-3.2 3.6-4.5 8.5-3.6 13.2.1.5.5.8 1.1.8zM81.3 14.7c2.1 0 3.8-1.7 3.8-3.8S83.5 7 81.3 7c-2.1 0-3.8 1.7-3.8 3.8 0 2.2 1.7 3.9 3.8 3.9zm0-5.7c1 0 1.8.8 1.8 1.8s-.8 1.8-1.8 1.8-1.8-.8-1.8-1.8.8-1.8 1.8-1.8zM59.9 37.5c-2.1 0-3.8 1.7-3.8 3.8s1.7 3.8 3.8 3.8 3.8-1.7 3.8-3.8-1.7-3.8-3.8-3.8zm0 5.7c-1 0-1.8-.8-1.8-1.8s.8-1.8 1.8-1.8 1.8.8 1.8 1.8-.8 1.8-1.8 1.8zM39.2 52.3c0 2.1 1.7 3.8 3.8 3.8s3.8-1.7 3.8-3.8-1.7-3.8-3.8-3.8c-2.1-.1-3.8 1.7-3.8 3.8zm5.6 0c0 1-.8 1.8-1.8 1.8s-1.8-.8-1.8-1.8.8-1.8 1.8-1.8 1.8.8 1.8 1.8zM14.1 18.5c2.1 0 3.8-1.7 3.8-3.8s-1.7-3.8-3.8-3.8-3.8 1.7-3.8 3.8c-.1 2 1.7 3.8 3.8 3.8zm0-5.7c1 0 1.8.8 1.8 1.8s-.8 1.8-1.8 1.8-1.8-.8-1.8-1.8.8-1.8 1.8-1.8zM26.5 67.2c-.3-.5-.9-.6-1.4-.4-.5.3-.6.9-.4 1.4.3.6.6 1.1 1 1.6.3.5.9.6 1.4.3.5-.3.6-.9.3-1.4-.2-.5-.5-1-.9-1.5zM38.2 78c-.7-.3-1.3-.7-1.9-1.1s-1.5-.9-2.2-1.4c-1.2-.9-2.3-1.8-3.4-2.9l-.4-.4c-.2-.2-.4-.4-.6-.7-.4-.4-1-.5-1.4-.1s-.5 1-.1 1.4c.2.3.5.6.8.8l.4.3c1.1 1.1 2.3 2.2 3.6 3.1.8.5 1.5 1.1 2.3 1.5s1.3.8 2 1.1c.5.3 1.1.1 1.4-.3.2-.3.1-.9-.5-1.3.1.1 0 0 0 0zM20 48c-.1-1.7-.4-3.5-.8-5.2-.1-.5-.7-.9-1.2-.7-.5.1-.9.7-.7 1.2.4 1.6.6 3.2.7 4.8.2 2.6 1.2 5 2.9 6.9.4.4 1 .4 1.4.1.4-.4.4-1 .1-1.4-1.4-1.6-2.3-3.6-2.4-5.7zM17.7 40.9c.5-.2.8-.7.6-1.3-.2-.6-.4-1.2-.7-1.8-.2-.5-.8-.7-1.3-.5s-.7.7-.5 1.2c.2.5.4 1.1.6 1.7.2.6.8.9 1.3.7z"/>
</svg>
