<?xml version="1.0" encoding="utf-8"?><svg xmlns="http://www.w3.org/2000/svg" xmlns:xlink="http://www.w3.org/1999/xlink"><symbol viewBox="0 0 79 79" id="icon_01_s" xmlns="http://www.w3.org/2000/svg"><path d="M44.122 2.245L75.773 32.81a8 8 0 01.198 11.312L45.406 75.773a8 8 0 01-11.312.198L2.443 45.406a8 8 0 01-.198-11.312L32.81 2.443a8 8 0 0111.312-.198zM34.25 3.832L3.684 35.483a6 6 0 00.148 8.484l31.651 30.565a6 6 0 008.484-.148l30.565-31.651a6 6 0 00-.148-8.484L42.733 3.684a6 6 0 00-8.484.148zm4.439 15.016c11.04.013 19.987 8.96 20 20 0 11.046-8.954 20-20 20s-20-8.954-20-20c0-11.045 8.954-20 20-20zm-.061 4.283a2.17 2.17 0 00-1.7.827 14.724 14.724 0 00-3.239.748v-.858H32.26v1.455a14.7 14.7 0 00-1.428.776v-2.23h-1.429v3.23c-.502.396-.98.823-1.428 1.278v-4.509h-1.429v6.207a14.955 14.955 0 001.597 19.443l-.121 3.616a2.097 2.097 0 104.19 0l-.025-.75a14.714 14.714 0 004.49 1.35c.09.345.266.662.512.92a2.112 2.112 0 003.564-.935c1.81-.253 3.56-.834 5.162-1.714l-.037 1.127a2.097 2.097 0 104.193 0l-.14-4.355a14.928 14.928 0 001.743-17.396c.388-.78.589-1.64.586-2.513 0-2.757-1.922-5-4.285-5a3.98 3.98 0 00-2.98 1.41 14.72 14.72 0 00-4.664-1.307 2.17 2.17 0 00-1.703-.82zm.775 20.003V53.16a.69.69 0 11-1.38-.025l.335-10h1.045zm8.619-9.286l.622 19.313a.668.668 0 01-.189.487.685.685 0 01-.961 0 .668.668 0 01-.189-.487l.623-19.313h.094zm-17.88 0l.645 19.31a.664.664 0 01-.188.487.682.682 0 01-.96 0 .665.665 0 01-.188-.486l.643-19.31h.047zm10.69-8.387c1.164.185 2.3.524 3.374 1.009a5.63 5.63 0 00-.517 2.378 5.024 5.024 0 002.82 4.691l-.54 16.754a13.597 13.597 0 01-5.137 1.954zm-4.415.008l-1.3 16.896a.715.715 0 00.715.77h1.098l-.306 9.109a13.27 13.27 0 01-4.492-1.533l-.566-16.97a2.857 2.857 0 002.123-2.75v-4.749c.88-.354 1.794-.613 2.728-.773zm-9.573 6.768a2.858 2.858 0 001.825 1.504l-.458 13.718a13.528 13.528 0 01-1.367-15.222zm23.912.409a13.5 13.5 0 01-.897 13.881l-.418-12.986a4.192 4.192 0 001.315-.895zm-12.122-8.083a.77.77 0 01.77.769v16.374h-2.8l1.264-16.433a.773.773 0 01.766-.71zm-9.23 4.399v3.458c-.79 0-1.43-.64-1.43-1.429v-.463a13.52 13.52 0 011.43-1.566zm2.857-2.06v4.09a1.43 1.43 0 01-1.43 1.428v-4.63c.459-.325.936-.621 1.43-.888zm15.714-1.625c1.578 0 2.857 1.6 2.857 3.571 0 1.973-1.28 3.572-2.857 3.572-1.578 0-2.857-1.6-2.857-3.572s1.279-3.571 2.857-3.571z"/></symbol><symbol viewBox="0 0 79 79" id="icon_02_s" xmlns="http://www.w3.org/2000/svg"><path d="M44.434 2.397l31.651 30.565a8 8 0 01.198 11.312l-30.565 31.65a8 8 0 01-11.312.198L2.755 45.557a8 8 0 01-.198-11.312l30.565-31.65a8 8 0 0111.312-.198zm-9.873 1.587L3.996 35.634a6 6 0 00.148 8.485l31.651 30.565a6 6 0 008.484-.149l30.565-31.65a6 6 0 00-.148-8.484L43.045 3.836a6 6 0 00-8.484.148zm9.24 44.315l6.499 1.714A7.885 7.885 0 0155.99 56h-9.118v-4.285a.714.714 0 00-.506-.684l-4.325-1.298a3.402 3.402 0 001.76-1.434zm-9.567.002c.603 1.158 2.405 1.958 4.666 1.985l6.543 1.96V56H22.041a7.886 7.886 0 015.694-5.984zm8.352 4.128a1.428 1.428 0 100 2.857 1.428 1.428 0 000-2.857zm0-6.384v1.385c0 .582-1.39 1.428-3.57 1.428-2.18 0-3.572-.846-3.572-1.428v-1.385a9.843 9.843 0 007.142 0zm5-13.613v4.285a8.57 8.57 0 01-17.14 0v-4.285h17.14zm-6.428 7.142h-4.285a.714.714 0 00-.714.714 2.857 2.857 0 005.713 0 .714.714 0 00-.714-.714zm-.906 1.428a1.429 1.429 0 01-2.473 0zm-1.95-7.142h-1.429v2.857a2.143 2.143 0 004.285 0V33.86H39.73v2.857a.714.714 0 01-1.428 0V33.86zm10.712.714a1.428 1.428 0 110 2.857zm-19.997 0v2.857a1.428 1.428 0 010-2.857zm5.713-1.428a.714.714 0 100 1.428.714.714 0 000-1.428zm8.57 0a.714.714 0 100 1.428.714.714 0 000-1.428zm5-3.571v1.428H29.731v-1.428H48.3zM39.015 16a4.278 4.278 0 014.27 4.019.715.715 0 001.193.484 3.57 3.57 0 113.583 6.007.714.714 0 00-.475.673v.963H30.445v-.963a.713.713 0 00-.476-.673 3.567 3.567 0 113.584-6.007.714.714 0 001.192-.484A4.278 4.278 0 0139.015 16z"/></symbol><symbol viewBox="0 0 79 79" id="icon_03_s" xmlns="http://www.w3.org/2000/svg"><path d="M44.434 2.397l31.651 30.565a8 8 0 01.198 11.312l-30.565 31.65a8 8 0 01-11.312.198L2.755 45.557a8 8 0 01-.198-11.312l30.565-31.65a8 8 0 0111.312-.198zm-9.873 1.587L3.996 35.634a6 6 0 00.148 8.485l31.651 30.565a6 6 0 008.484-.149l30.565-31.65a6 6 0 00-.148-8.484L43.045 3.836a6 6 0 00-8.484.148zM57.4 49.8l-1.92 2.56A5.63 5.63 0 0151 54.6H25.4a5.63 5.63 0 01-4.48-2.24L19 49.8h38.4zM38.2 34.6c9.044 0 18.688 3.594 19.177 13.6H19.023c.489-10.006 10.133-13.6 19.177-13.6zm16.137 9.253l-1.416.746c.26.495.482 1.01.663 1.54l1.514-.517a12.45 12.45 0 00-.761-1.77zm-7.033-6.03l-.586 1.487a12.147 12.147 0 015.242 3.786l1.264-.978a13.711 13.711 0 00-5.92-4.295zM38.2 30.6a1.6 1.6 0 011.6 1.6c0 .292-.08.578-.234.826-.45-.016-.903-.026-1.366-.026-.462 0-.916.01-1.366.026a1.569 1.569 0 01-.234-.826 1.6 1.6 0 011.6-1.6zm-16-2.4v1.6h1.6v1.6h-1.6V33h-1.6v-1.6H19v-1.6h1.6v-1.6h1.6zm35.2-4.8V25H59v1.6h-1.6v1.6h-1.6v-1.6h-1.6V25h1.6v-1.6h1.6z"/></symbol><symbol viewBox="0 0 79 79" id="icon_04_s" xmlns="http://www.w3.org/2000/svg"><path d="M44.122 2.245L75.773 32.81a8 8 0 01.198 11.312L45.406 75.773a8 8 0 01-11.312.198L2.443 45.406a8 8 0 01-.198-11.312L32.81 2.443a8 8 0 0111.312-.198zM34.25 3.832L3.684 35.483a6 6 0 00.148 8.484l31.651 30.565a6 6 0 008.484-.148l30.565-31.651a6 6 0 00-.148-8.484L42.733 3.684a6 6 0 00-8.484.148zM30.336 28.59c.765-.767 1.988-.789 2.724-.05l3.707 3.715c.736.739.715 1.964-.05 2.73l-.616.62-1.253 1.253c.065.115.131.236.2.361.656 1.183 1.552 2.803 3.256 4.51 1.698 1.703 3.312 2.6 4.49 3.256l.37.205 1.867-1.871c.764-.766 1.986-.788 2.724-.051l3.707 3.715c.736.74.714 1.966-.05 2.733l-1.058 1.038-.023-.02a6.02 6.02 0 01-1.512.859 6.25 6.25 0 01-1.545.389c-.241.025-5.847.552-12.802-6.419-5.032-5.043-6.886-8.76-6.396-12.826a6.32 6.32 0 01.383-1.543c.217-.558.51-1.074.86-1.522l-.028-.029z"/></symbol><symbol viewBox="0 0 79 79" id="icon_05_s" xmlns="http://www.w3.org/2000/svg"><path d="M44.122 2.245L75.773 32.81a8 8 0 01.198 11.312L45.406 75.773a8 8 0 01-11.312.198L2.443 45.406a8 8 0 01-.198-11.312L32.81 2.443a8 8 0 0111.312-.198zM34.25 3.832L3.684 35.483a6 6 0 00.148 8.484l31.651 30.565a6 6 0 008.484-.148l30.565-31.651a6 6 0 00-.148-8.484L42.733 3.684a6 6 0 00-8.484.148zM38.999 24C45.066 24 50 28.955 50 35.045c0 1.588-.324 3.105-.962 4.508-2.751 6.043-8.024 12.423-9.574 14.234a.612.612 0 01-.928 0c-1.55-1.812-6.824-8.191-9.574-14.234A10.81 10.81 0 0128 35.045C28 28.955 32.935 24 39 24zM39 30c-2.757 0-5 2.243-5 5s2.243 5 5 5 5-2.243 5-5-2.243-5-5-5z"/></symbol></svg>